<svg xmlns="http://www.w3.org/2000/svg" width="820" height="300" viewBox="0 0 820 300" font-family="ui-monospace,Menlo,monospace">
  <rect width="820" height="300" fill="#0a0e17"/>
  <rect x="320" y="20" width="180" height="50" rx="10" fill="#121826" stroke="#5eead4"/>
  <text x="410" y="42" fill="#5eead4" font-size="14" text-anchor="middle" font-weight="bold">Supervisor</text>
  <text x="410" y="60" fill="#8b95a7" font-size="10" text-anchor="middle">route · reflect · veto</text>
  <g stroke="#334155" stroke-width="1.5">
    <line x1="410" y1="70" x2="90" y2="150"/><line x1="410" y1="70" x2="250" y2="150"/>
    <line x1="410" y1="70" x2="410" y2="150"/><line x1="410" y1="70" x2="570" y2="150"/>
    <line x1="410" y1="70" x2="730" y2="150"/>
  </g>
  <g font-size="12" text-anchor="middle">
    <g><rect x="20" y="150" width="140" height="56" rx="9" fill="#0f1420" stroke="#1f2937"/>
      <text x="90" y="172" fill="#e5e9f0">Market Data</text><text x="90" y="190" fill="#8b95a7" font-size="10">yfinance</text></g>
    <g><rect x="180" y="150" width="140" height="56" rx="9" fill="#0f1420" stroke="#1f2937"/>
      <text x="250" y="172" fill="#e5e9f0">Fundamental</text><text x="250" y="190" fill="#8b95a7" font-size="10">growth/margins</text></g>
    <g><rect x="340" y="150" width="140" height="56" rx="9" fill="#0f1420" stroke="#1f2937"/>
      <text x="410" y="172" fill="#e5e9f0">News/Sentiment</text><text x="410" y="190" fill="#8b95a7" font-size="10">LLM scoring</text></g>
    <g><rect x="500" y="150" width="140" height="56" rx="9" fill="#0f1420" stroke="#f87171"/>
      <text x="570" y="172" fill="#f87171">Risk Manager</text><text x="570" y="190" fill="#8b95a7" font-size="10">quant+LLM · veto</text></g>
    <g><rect x="660" y="150" width="140" height="56" rx="9" fill="#0f1420" stroke="#1f2937"/>
      <text x="730" y="172" fill="#e5e9f0">Report Writer</text><text x="730" y="190" fill="#8b95a7" font-size="10">memo</text></g>
  </g>
  <text x="410" y="260" fill="#8b95a7" font-size="11" text-anchor="middle">Streamed live to the UI via Server-Sent Events</text>
</svg>
